# xmcd
#
# Track frame offsets:
#  150
#  20746
#  41487
#  63613
#  86350
#  98550
#  117788
#  128351
#  146844
#  164203
#
# Disc length: 2444 seconds
#
# Revision: 1
# Processed by: cddbd v1.4PL0 Copyright (c) Steve Scherf et al.
# Submitted via: PegasusMail 3.12c
#
DISCID=84098a0a
DTITLE=Sade - Lovers Rock
DYEAR=2000
DGENRE=Jazz
TTITLE0=By Your Side
TTITLE1=Flow
TTITLE2=King Of Sorrow
TTITLE3=Somebody Already Broke My Heart
TTITLE4=All About Our Love
TTITLE5=Slave Song
TTITLE6=The Sweetest Gift
TTITLE7=Every Word
TTITLE8=Immigrant
TTITLE9=Lovers Rock
EXTD=YEAR: 2000
EXTT0=
EXTT1=
EXTT2=
EXTT3=
EXTT4=
EXTT5=
EXTT6=
EXTT7=
EXTT8=
EXTT9=
PLAYORDER=
